<svg xmlns="http://www.w3.org/2000/svg" width="39.377" height="39.393" viewBox="0 0 39.377 39.393">
  <g id="Group_71" data-name="Group 71" transform="translate(-94.779 -1)">
    <path id="Path_1" data-name="Path 1" d="M362.7,26.118a6.137,6.137,0,0,0-.739-.048H355.23v6.053a6.511,6.511,0,0,0,.091,1.1,6.752,6.752,0,0,0,4.439,5.264,7.8,7.8,0,0,1,2.2-.315h6.051V32.123a6.059,6.059,0,0,0-5.312-6.005Z" transform="translate(-254.456 -18.382)" fill="#edca1f"/>
    <path id="Path_2" data-name="Path 2" d="M338.427,54a6.94,6.94,0,0,0-.752.651h0l-4.914,4.911,4.922,4.922h0l.163.155a7.9,7.9,0,0,1,4.773-5.445A7.2,7.2,0,0,1,338.427,54Z" transform="translate(-237.981 -38.86)" fill="#edca1f"/>
    <path id="Path_3" data-name="Path 3" d="M448.338,55.985h0l-.163-.155a7.9,7.9,0,0,1-4.775,5.445,7.2,7.2,0,0,1,4.189,5.2,6.825,6.825,0,0,0,.75-.648h0l4.922-4.922Z" transform="translate(-319.104 -40.202)" fill="#00a4ae"/>
    <path id="Path_4" data-name="Path 4" d="M418.244,77.09a7.86,7.86,0,0,1-2.2.312H410v6.051a6.059,6.059,0,0,0,5.312,6.005,6.136,6.136,0,0,0,.739.048h6.728V83.469a6.857,6.857,0,0,0-.091-1.1A6.75,6.75,0,0,0,418.244,77.09Z" transform="translate(-294.614 -55.79)" fill="#00a4ae"/>
    <path id="Path_5" data-name="Path 5" d="M398.161,6.658a7.264,7.264,0,0,0-.635-.723h0L392.607,1l-4.922,4.936h0c-.053.051-.1.107-.155.163a7.9,7.9,0,0,1,5.44,4.754,7.224,7.224,0,0,1,5.192-4.194Z" transform="translate(-278.139)" fill="#ba2132"/>
    <path id="Path_6" data-name="Path 6" d="M415.148,23.4a6.734,6.734,0,0,0-6.368,4.535,7.838,7.838,0,0,1,.32,2.222v6.059h6.051a6.061,6.061,0,0,0,6.005-5.309,6.186,6.186,0,0,0,.045-.742V23.4Z" transform="translate(-293.72 -16.424)" fill="#ba2132"/>
    <path id="Path_9" data-name="Path 9" d="M390.836,111.47a7.219,7.219,0,0,1-5.186,4.239,7.283,7.283,0,0,0,.656.76h0l4.922,4.922,4.92-4.922c.053-.053.1-.109.155-.165A7.9,7.9,0,0,1,390.836,111.47Z" transform="translate(-276.76 -80.998)" fill="#a5a6a9"/>
    <path id="Path_10" data-name="Path 10" d="M370.211,86.434a7.844,7.844,0,0,1-.291-2.134V78.26H363.87a6.059,6.059,0,0,0-5.995,5.312,6.179,6.179,0,0,0-.045.742v6.734h6a6.734,6.734,0,0,0,6.4-4.613Z" transform="translate(-256.363 -56.648)" fill="#a5a6a9"/>
  </g>
</svg>
